#!OML:ASF X:\2005_08_12_Meinard\c3d\meinard.ASF
:FULLY-SPECIFIED
:DEGREES
219
root 3.82686 16.8121 -0.984727 -18.0018 -80.0534 -2.54235
lowerback 36.2996 -1.28075 -3.28818
upperback 4.47139 -3.50013 0.0323836
thorax -12.9945 -1.66972 3.31075
lowerneck -6.26907 -10.4938 -10.5524
upperneck -2.82247 -13.4292 10.4647
head 1.59093 -6.58486 4.22334
rclavicle -1.23246e-014 -1.37161e-014
rhumerus 33.3873 -36.2644 -46.2079
rradius 14.9831
rwrist 20.403
rhand -23.1987 -7.68527
rfingers 7.12502
rthumb 3.25123 -37.6402
lclavicle -1.23246e-014 -1.37161e-014
lhumerus 35.4262 -36.3762 64.4644
lradius 115.641
lwrist 31.0327
lhand -3.94636 -14.5726
lfingers 7.12502
lthumb 21.8055 14.2189
rfemur -1.86452 -13.2666 9.25341
rtibia 60.4199
rfoot -5.74913 -1.59104
rtoes -16.0042
lfemur 13.6645 5.1075 -13.8419
ltibia 30.1239
lfoot -20.3685 -1.42075
ltoes -18.4641
220
root 3.78682 16.8155 -0.996788 -18.3804 -79.9005 -2.20423
lowerback 36.3642 -1.31964 -3.33974
upperback 4.47547 -3.58295 -0.0329988
thorax -13.01 -1.7052 3.30349
lowerneck -6.32993 -10.5103 -10.7714
upperneck -2.75636 -13.4357 10.5713
head 1.64331 -6.58331 4.28053
rclavicle 1.5207e-014 -4.57205e-015
rhumerus 33.4949 -35.709 -45.2186
rradius 15.1662
rwrist 19.6805
rhand -22.3546 -7.30924
rfingers 7.12502
rthumb 4.06632 -37.2502
lclavicle 1.5207e-014 -4.57205e-015
lhumerus 35.4802 -36.3954 64.4297
lradius 115.74
lwrist 30.9289
lhand -3.69737 -14.7116
lfingers 7.12502
lthumb 22.0445 14.052
rfemur -2.30333 -13.111 9.15656
rtibia 60.4089
rfoot -5.74429 -1.43045
rtoes -15.9693
lfemur 13.974 5.00786 -13.853
ltibia 29.8289
lfoot -20.3409 -1.46214
ltoes -18.5641
221
root 3.74616 16.8175 -1.01078 -18.5222 -79.7253 -2.08544
lowerback 36.4088 -1.38034 -3.34341
upperback 4.46766 -3.67118 -0.089173
thorax -13.0336 -1.74387 3.28309
lowerneck -6.3615 -10.5223 -11.0106
upperneck -2.68715 -13.4378 10.6958
head 1.69431 -6.5798 4.34773
rclavicle 3.34207e-014 -1.19271e-015
rhumerus 33.5553 -35.1294 -44.2083
rradius 15.3398
rwrist 19.2936
rhand -21.134 -6.63858
rfingers 7.12502
rthumb 5.245 -36.5537
lclavicle 3.34207e-014 -1.19271e-015
lhumerus 35.4572 -36.4566 64.4507
lradius 115.869
lwrist 30.7257
lhand -3.54669 -14.8443
lfingers 7.12502
lthumb 22.1892 13.9021
rfemur -2.6695 -12.897 9.13452
rtibia 60.1411
rfoot -5.83453 -1.26262
rtoes -15.8081
lfemur 14.2321 4.87237 -13.8255
ltibia 29.5814
lfoot -20.3017 -1.49062
ltoes -18.56
222
root 3.70346 16.8167 -1.02746 -18.5829 -79.5462 -2.03276
lowerback 36.4309 -1.44481 -3.35403
upperback 4.45854 -3.76373 -0.133445
thorax -13.0488 -1.78405 3.28035
lowerneck -6.41598 -10.5197 -11.1871
upperneck -2.61919 -13.4213 10.7695
head 1.73855 -6.56744 4.39137
rclavicle 3.97569e-015 2.18663e-015
rhumerus 33.6608 -34.5861 -43.2541
rradius 15.4858
rwrist 19.2475
rhand -19.4323 -5.65056
rfingers 7.12502
rthumb 6.88784 -35.5185
lclavicle 3.97569e-015 2.18663e-015
lhumerus 35.4472 -36.5136 64.4572
lradius 115.966
lwrist 30.4874
lhand -3.47558 -14.991
lfingers 7.12502
lthumb 22.2575 13.7473
rfemur -2.94404 -12.5866 9.16425
rtibia 59.6073
rfoot -6.02944 -1.129
rtoes -15.4858
lfemur 14.4433 4.72686 -13.7827
ltibia 29.3985
lfoot -20.3285 -1.52487
ltoes -18.7274
223
root 3.66022 16.8147 -1.04628 -18.6982 -79.3545 -1.90415
lowerback 36.4273 -1.51699 -3.35509
upperback 4.45208 -3.86556 -0.209393
thorax -13.0533 -1.82943 3.24108
lowerneck -6.48993 -10.5148 -11.2519
upperneck -2.54165 -13.4071 10.7919
head 1.7777 -6.55715 4.40233
rclavicle 2.23136e-014 7.35503e-015
rhumerus 33.8147 -34.2192 -42.4728
rradius 15.6313
rwrist 19.6815
rhand -17.2989 -4.41975
rfingers 7.12502
rthumb 8.94692 -34.21
lclavicle 2.23136e-014 7.35503e-015
lhumerus 35.4284 -36.607 64.3915
lradius 116.107
lwrist 30.2611
lhand -3.42155 -15.1349
lfingers 7.12502
lthumb 22.3093 13.5972
rfemur -3.15046 -12.207 9.18981
rtibia 58.8209
rfoot -6.31433 -0.846343
rtoes -15.5923
lfemur 14.5908 4.5503 -13.765
ltibia 29.2976
lfoot -20.3805 -1.51473
ltoes -18.8793
224
root 3.61521 16.8119 -1.06676 -18.5136 -79.1529 -2.06275
lowerback 36.3955 -1.61607 -3.28586
upperback 4.45148 -3.97307 -0.290193
thorax -13.0452 -1.88092 3.16075
lowerneck -6.60221 -10.5013 -11.2198
upperneck -2.45035 -13.3849 10.7778
head 1.81704 -6.54289 4.38674
rclavicle -5.26779e-014 1.78906e-014
rhumerus 33.9034 -33.893 -41.7144
rradius 15.8719
rwrist 20.3893
rhand -14.8225 -3.12621
rfingers 7.12502
rthumb 11.3359 -32.7998
lclavicle -5.26779e-014 1.78906e-014
lhumerus 35.4588 -36.7177 64.2677
lradius 116.236
lwrist 29.997
lhand -3.47374 -15.3376
lfingers 7.12502
lthumb 22.2592 13.4005
rfemur -3.26963 -11.743 9.27978
rtibia 57.7831
rfoot -6.7141 -0.363897
rtoes -16.0344
lfemur 14.6957 4.32071 -13.6997
ltibia 29.2574
lfoot -20.4723 -1.51547
ltoes -18.9474
